# xmcd CD database file
#
# Track frame offsets:
#	150
#	32341
#	75383
#	109254
#	130814
#	175591
#	216791
#	234946
#	269237
#
# Disc length: 4165 seconds
#
# Revision: 0
# Processed by: cddbd v1.5.1PL0 Copyright (c) Steve Scherf et al.
# Submitted via: CDex 1.50
#
DISCID=6f104309
DTITLE=Alister Spence Trio - Flux
DYEAR=2005
DGENRE=Jazz
TTITLE0=Hiatus 
TTITLE1=Yo No Se Nada
TTITLE2=The High Line
TTITLE3=Languid
TTITLE4=On Impulse
TTITLE5=Organum
TTITLE6=Lullaby in Black
TTITLE7=Creeper
TTITLE8=Let it Ring
EXTD=YEAR: 2005
EXTT0=
EXTT1=
EXTT2=
EXTT3=
EXTT4=
EXTT5=
EXTT6=
EXTT7=
EXTT8=
PLAYORDER=
